<svg width="188" height="177" viewBox="0 0 188 177" fill="none" xmlns="http://www.w3.org/2000/svg">
<path d="M69.6367 0H121.106V8.15971H99.7649V73.2281H90.9775V8.15971H69.6367V0Z" fill="#33F066"/>
<path d="M111.249 41.3129C111.249 38.9417 110.761 36.8495 109.785 35.0362C108.878 33.2229 107.623 31.7235 106.019 30.5379C104.414 29.3523 102.566 28.4457 100.474 27.818C98.3819 27.1903 96.185 26.8765 93.8836 26.8765C91.8611 26.8765 89.9432 27.1555 88.13 27.7134C86.3167 28.2016 84.6778 28.9339 83.2132 29.9102C81.8184 30.8866 80.7025 32.1071 79.8656 33.5717C79.0287 34.9665 78.6103 36.6054 78.6103 38.4884V39.1161C78.6103 41.1386 79.0287 42.8821 79.8656 44.3467C80.7025 45.7415 81.923 46.9619 83.527 48.0081C85.2008 48.9844 87.2582 49.8213 89.6991 50.5187C92.1401 51.1464 94.9994 51.7043 98.2773 52.1925C105.949 53.3781 111.598 55.6447 115.224 58.9923C118.851 62.2701 120.664 66.6987 120.664 72.278V73.5333C120.664 76.6716 120.106 79.5659 118.99 82.2161C117.944 84.7965 116.34 87.0282 114.178 88.9112C112.086 90.7942 109.471 92.2588 106.332 93.3049C103.194 94.351 99.5675 94.8741 95.4528 94.8741C90.7801 94.8741 86.6305 94.2115 83.004 92.8864C79.4472 91.4916 76.4483 89.6086 74.0074 87.2374C71.6362 84.7965 69.8229 81.972 68.5676 78.7639C67.3122 75.486 66.6846 71.9292 66.6846 68.0935V64.9551H75.4719V67.4658C75.4719 73.882 77.2155 78.6941 80.7025 81.9022C84.2593 85.1103 89.1761 86.7143 95.4528 86.7143C100.893 86.7143 104.972 85.5288 107.692 83.1576C110.482 80.7166 111.877 77.5085 111.877 73.5333V72.9056C111.877 69.0699 110.447 66.1407 107.588 64.1182C104.798 62.0958 100.23 60.6312 93.8836 59.7246C90.1873 59.2364 86.8397 58.5041 83.8409 57.5277C80.9118 56.4816 78.4011 55.1565 76.3088 53.5525C74.2166 51.8787 72.6126 49.8911 71.4967 47.5896C70.3808 45.2882 69.8229 42.5683 69.8229 39.4299V38.1746C69.8229 35.3152 70.4157 32.6999 71.6013 30.3287C72.7869 27.9575 74.4258 25.9001 76.5181 24.1566C78.68 22.4131 81.2256 21.088 84.1547 20.1814C87.1536 19.205 90.4314 18.7168 93.9882 18.7168C98.1029 18.7168 101.764 19.3096 104.972 20.4952C108.25 21.6808 111.005 23.2848 113.237 25.3073C115.468 27.2601 117.142 29.5964 118.258 32.3163C119.444 34.9665 120.036 37.7561 120.036 40.6852V45.0789H111.249V41.3129Z" fill="white"/>
<path d="M69.6367 0H121.106V8.15971H99.7649V34.4618H90.9775V8.15971H69.6367V0Z" fill="#33F066"/>
<path d="M22.3619 164.235C19.6606 164.235 17.375 163.611 15.5048 162.365C13.6644 161.118 12.5513 159.144 12.1654 156.443L15.5048 155.686C15.7423 157.11 16.1876 158.238 16.8406 159.07C17.4937 159.871 18.2952 160.45 19.2451 160.806C20.2246 161.133 21.2636 161.296 22.3619 161.296C23.9945 161.296 25.2858 160.969 26.2357 160.316C27.1856 159.663 27.6605 158.788 27.6605 157.689C27.6605 156.561 27.2004 155.775 26.2802 155.329C25.3897 154.854 24.1578 154.469 22.5845 154.172L20.759 153.86C19.3638 153.623 18.0874 153.252 16.9297 152.747C15.772 152.242 14.8518 151.56 14.1691 150.699C13.4863 149.838 13.145 148.754 13.145 147.448C13.145 145.489 13.9019 143.96 15.4158 142.862C16.9297 141.764 18.9334 141.215 21.4268 141.215C23.8906 141.215 25.8795 141.779 27.3934 142.907C28.937 144.005 29.9314 145.563 30.3766 147.582L27.0817 148.428C26.8145 146.855 26.1763 145.756 25.1671 145.133C24.1578 144.48 22.9111 144.153 21.4268 144.153C19.9426 144.153 18.7701 144.435 17.9093 144.999C17.0484 145.534 16.618 146.335 16.618 147.404C16.618 148.443 17.0187 149.214 17.8202 149.719C18.6514 150.194 19.7497 150.55 21.1152 150.788L22.9407 151.099C24.4843 151.367 25.8646 151.738 27.0817 152.213C28.3284 152.658 29.308 153.311 30.0204 154.172C30.7625 155.033 31.1336 156.161 31.1336 157.556C31.1336 159.693 30.3321 161.34 28.7292 162.498C27.1559 163.656 25.0335 164.235 22.3619 164.235ZM36.6256 172.517V141.838H40.0542V145.445H40.6775C41.2415 144.346 42.1469 143.367 43.3936 142.506C44.67 141.645 46.4363 141.215 48.6923 141.215C50.5624 141.215 52.2692 141.675 53.8128 142.595C55.386 143.485 56.6328 144.762 57.553 146.424C58.5029 148.086 58.9778 150.09 58.9778 152.435V153.014C58.9778 155.329 58.5177 157.333 57.5975 159.025C56.6773 160.717 55.4306 162.008 53.8573 162.899C52.3137 163.789 50.592 164.235 48.6923 164.235C47.1784 164.235 45.8871 164.027 44.8185 163.611C43.7795 163.225 42.9335 162.721 42.2805 162.097C41.6274 161.474 41.1228 160.836 40.7666 160.183H40.1432V172.517H36.6256ZM47.7572 161.118C50.0132 161.118 51.8388 160.405 53.2339 158.981C54.6588 157.526 55.3712 155.508 55.3712 152.925V152.524C55.3712 149.942 54.6588 147.938 53.2339 146.513C51.8388 145.059 50.0132 144.331 47.7572 144.331C45.5309 144.331 43.6905 145.059 42.2359 146.513C40.8111 147.938 40.0987 149.942 40.0987 152.524V152.925C40.0987 155.508 40.8111 157.526 42.2359 158.981C43.6905 160.405 45.5309 161.118 47.7572 161.118ZM64.8355 163.611V132.443H68.3531V163.611H64.8355ZM75.3044 163.611V141.838H78.822V163.611H75.3044ZM77.0854 138.454C76.3136 138.454 75.6606 138.202 75.1263 137.697C74.6216 137.192 74.3693 136.554 74.3693 135.782C74.3693 134.981 74.6216 134.328 75.1263 133.823C75.6606 133.319 76.3136 133.066 77.0854 133.066C77.8572 133.066 78.4954 133.319 79.0001 133.823C79.5047 134.328 79.757 134.981 79.757 135.782C79.757 136.554 79.5047 137.192 79.0001 137.697C78.4954 138.202 77.8572 138.454 77.0854 138.454ZM93.788 163.611C92.5413 163.611 91.5765 163.27 90.8938 162.587C90.2408 161.904 89.9142 160.969 89.9142 159.782V144.91H83.3689V141.838H89.9142V134.09H93.4318V141.838H99.1312V144.91H93.4318V159.248C93.4318 160.138 93.8622 160.584 94.7231 160.584H99.5764V163.611H93.788ZM108.125 163.611C106.879 163.611 105.914 163.27 105.231 162.587C104.549 161.904 104.207 160.969 104.207 159.782V144.91H99.1312V141.838H104.207V134.09H107.725V141.838H114.893V144.91H107.725V159.248C107.725 160.138 108.17 160.584 109.061 160.584H113.914V163.611H108.125ZM120.158 163.611V132.443H123.675V145.311H124.299C124.595 144.658 125.041 144.049 125.634 143.485C126.258 142.892 127.044 142.402 127.994 142.016C128.974 141.63 130.206 141.437 131.69 141.437C133.323 141.437 134.777 141.793 136.054 142.506C137.36 143.189 138.399 144.198 139.17 145.534C139.942 146.84 140.328 148.472 140.328 150.432V163.611H136.811V150.699C136.811 148.532 136.261 146.958 135.163 145.979C134.094 144.999 132.64 144.51 130.799 144.51C128.692 144.51 126.97 145.192 125.634 146.558C124.328 147.923 123.675 149.957 123.675 152.658V163.611H120.158ZM147.02 163.611V141.838H150.537V163.611H147.02ZM148.801 138.454C148.029 138.454 147.376 138.202 146.841 137.697C146.337 137.192 146.085 136.554 146.085 135.782C146.085 134.981 146.337 134.328 146.841 133.823C147.376 133.319 148.029 133.066 148.801 133.066C149.572 133.066 150.211 133.319 150.715 133.823C151.22 134.328 151.472 134.981 151.472 135.782C151.472 136.554 151.22 137.192 150.715 137.697C150.211 138.202 149.572 138.454 148.801 138.454ZM166.26 164.235C163.559 164.235 161.273 163.611 159.403 162.365C157.563 161.118 156.45 159.144 156.064 156.443L159.403 155.686C159.641 157.11 160.086 158.238 160.739 159.07C161.392 159.871 162.193 160.45 163.143 160.806C164.123 161.133 165.162 161.296 166.26 161.296C167.893 161.296 169.184 160.969 170.134 160.316C171.084 159.663 171.559 158.788 171.559 157.689C171.559 156.561 171.099 155.775 170.178 155.329C169.288 154.854 168.056 154.469 166.483 154.172L164.657 153.86C163.262 153.623 161.986 153.252 160.828 152.747C159.67 152.242 158.75 151.56 158.067 150.699C157.385 149.838 157.043 148.754 157.043 147.448C157.043 145.489 157.8 143.96 159.314 142.862C160.828 141.764 162.832 141.215 165.325 141.215C167.789 141.215 169.778 141.779 171.292 142.907C172.835 144.005 173.83 145.563 174.275 147.582L170.98 148.428C170.713 146.855 170.075 145.756 169.065 145.133C168.056 144.48 166.809 144.153 165.325 144.153C163.841 144.153 162.668 144.435 161.808 144.999C160.947 145.534 160.516 146.335 160.516 147.404C160.516 148.443 160.917 149.214 161.718 149.719C162.55 150.194 163.648 150.55 165.013 150.788L166.839 151.099C168.383 151.367 169.763 151.738 170.98 152.213C172.227 152.658 173.206 153.311 173.919 154.172C174.661 155.033 175.032 156.161 175.032 157.556C175.032 159.693 174.23 161.34 172.627 162.498C171.054 163.656 168.932 164.235 166.26 164.235Z" fill="white"/>
</svg>
