<svg width="101" height="26" viewBox="0 0 101 26" fill="none" xmlns="http://www.w3.org/2000/svg">
<path d="M4.80469 0H18.8361V2.22449H13.0182V19.9634H10.6226V2.22449H4.80469V0Z" fill="#33F066"/>
<path d="M16.1492 11.2637C16.1492 10.6172 16.0161 10.0468 15.7499 9.55251C15.5027 9.05817 15.1605 8.6494 14.7232 8.32618C14.2859 8.00297 13.7821 7.7558 13.2117 7.58468C12.6413 7.41357 12.0424 7.32801 11.415 7.32801C10.8636 7.32801 10.3408 7.40406 9.84643 7.55616C9.3521 7.68925 8.9053 7.88889 8.50603 8.15507C8.12577 8.42124 7.82157 8.75397 7.59341 9.15324C7.36526 9.53349 7.25118 9.98029 7.25118 10.4936V10.6648C7.25118 11.2161 7.36526 11.6914 7.59341 12.0907C7.82157 12.471 8.15429 12.8037 8.59158 13.0889C9.04789 13.3551 9.60877 13.5832 10.2742 13.7733C10.9397 13.9445 11.7192 14.0966 12.6128 14.2296C14.7042 14.5529 16.2442 15.1708 17.2329 16.0834C18.2216 16.977 18.7159 18.1843 18.7159 19.7053V20.0476C18.7159 20.9031 18.5638 21.6922 18.2596 22.4146C17.9744 23.1181 17.5371 23.7265 16.9477 24.2399C16.3773 24.7532 15.6643 25.1525 14.8088 25.4377C13.9532 25.7229 12.9645 25.8655 11.8428 25.8655C10.5689 25.8655 9.43765 25.6848 8.44899 25.3236C7.47934 24.9433 6.66179 24.43 5.99634 23.7836C5.34991 23.1181 4.85557 22.3481 4.51334 21.4735C4.17111 20.5799 4 19.6103 4 18.5646V17.709H6.39561V18.3934C6.39561 20.1426 6.87093 21.4545 7.82157 22.3291C8.79122 23.2037 10.1316 23.641 11.8428 23.641C13.3258 23.641 14.438 23.3178 15.1795 22.6713C15.94 22.0059 16.3203 21.1313 16.3203 20.0476V19.8764C16.3203 18.8307 15.9305 18.0322 15.151 17.4808C14.3905 16.9295 13.1451 16.5302 11.415 16.283C10.4073 16.1499 9.49469 15.9503 8.67714 15.6841C7.87861 15.3989 7.19415 15.0377 6.62376 14.6004C6.05338 14.1441 5.61609 13.6022 5.31188 12.9748C5.00768 12.3474 4.85557 11.6059 4.85557 10.7503V10.4081C4.85557 9.62856 5.01718 8.91558 5.3404 8.26914C5.66362 7.62271 6.11042 7.06183 6.6808 6.58651C7.2702 6.11119 7.96416 5.74995 8.7627 5.50278C9.58025 5.23661 10.4739 5.10352 11.4435 5.10352C12.5653 5.10352 13.5634 5.26512 14.438 5.58834C15.3316 5.91156 16.0826 6.34885 16.691 6.90022C17.2994 7.43258 17.7557 8.06951 18.0599 8.81101C18.3832 9.53349 18.5448 10.294 18.5448 11.0925V12.2903H16.1492V11.2637Z" fill="white"/>
<path d="M4.80469 0H18.8361V2.22449H13.0182V9.39495H10.6226V2.22449H4.80469V0Z" fill="#33F066"/>
<path d="M33.8759 19.6856C32.7839 19.6856 31.8599 19.4336 31.1039 18.9296C30.3599 18.4256 29.9099 17.6276 29.7539 16.5356L31.1039 16.2296C31.1999 16.8056 31.3799 17.2616 31.6439 17.5976C31.9079 17.9216 32.2319 18.1556 32.6159 18.2996C33.0119 18.4316 33.4319 18.4976 33.8759 18.4976C34.5359 18.4976 35.0579 18.3656 35.4419 18.1016C35.8259 17.8376 36.0179 17.4836 36.0179 17.0396C36.0179 16.5836 35.8319 16.2656 35.4599 16.0856C35.0999 15.8936 34.6019 15.7376 33.9659 15.6176L33.2279 15.4916C32.6639 15.3956 32.1479 15.2456 31.6799 15.0416C31.2119 14.8376 30.8399 14.5616 30.5639 14.2136C30.2879 13.8656 30.1499 13.4276 30.1499 12.8996C30.1499 12.1076 30.4559 11.4896 31.0679 11.0456C31.6799 10.6016 32.4899 10.3796 33.4979 10.3796C34.4939 10.3796 35.2979 10.6076 35.9099 11.0636C36.5339 11.5076 36.9359 12.1376 37.1159 12.9536L35.7839 13.2956C35.6759 12.6596 35.4179 12.2156 35.0099 11.9636C34.6019 11.6996 34.0979 11.5676 33.4979 11.5676C32.8979 11.5676 32.4239 11.6816 32.0759 11.9096C31.7279 12.1256 31.5539 12.4496 31.5539 12.8816C31.5539 13.3016 31.7159 13.6136 32.0399 13.8176C32.3759 14.0096 32.8199 14.1536 33.3719 14.2496L34.1099 14.3756C34.7339 14.4836 35.2919 14.6336 35.7839 14.8256C36.2879 15.0056 36.6839 15.2696 36.9719 15.6176C37.2719 15.9656 37.4219 16.4216 37.4219 16.9856C37.4219 17.8496 37.0979 18.5156 36.4499 18.9836C35.8139 19.4516 34.9559 19.6856 33.8759 19.6856ZM39.6421 23.0336V10.6316H41.0281V12.0896H41.2801C41.5081 11.6456 41.8741 11.2496 42.3781 10.9016C42.8941 10.5536 43.6081 10.3796 44.5201 10.3796C45.2761 10.3796 45.9661 10.5656 46.5901 10.9376C47.2261 11.2976 47.7301 11.8136 48.1021 12.4856C48.4861 13.1576 48.6781 13.9676 48.6781 14.9156V15.1496C48.6781 16.0856 48.4921 16.8956 48.1201 17.5796C47.7481 18.2636 47.2441 18.7856 46.6081 19.1456C45.9841 19.5056 45.2881 19.6856 44.5201 19.6856C43.9081 19.6856 43.3861 19.6016 42.9541 19.4336C42.5341 19.2776 42.1921 19.0736 41.9281 18.8216C41.6641 18.5696 41.4601 18.3116 41.3161 18.0476H41.0641V23.0336H39.6421ZM44.1421 18.4256C45.0541 18.4256 45.7921 18.1376 46.3561 17.5616C46.9321 16.9736 47.2201 16.1576 47.2201 15.1136V14.9516C47.2201 13.9076 46.9321 13.0976 46.3561 12.5216C45.7921 11.9336 45.0541 11.6396 44.1421 11.6396C43.2421 11.6396 42.4981 11.9336 41.9101 12.5216C41.3341 13.0976 41.0461 13.9076 41.0461 14.9516V15.1136C41.0461 16.1576 41.3341 16.9736 41.9101 17.5616C42.4981 18.1376 43.2421 18.4256 44.1421 18.4256ZM51.0461 19.4336V6.83359H52.4681V19.4336H51.0461ZM55.2782 19.4336V10.6316H56.7002V19.4336H55.2782ZM55.9982 9.26359C55.6862 9.26359 55.4222 9.16159 55.2062 8.95759C55.0022 8.75359 54.9002 8.49559 54.9002 8.18359C54.9002 7.85959 55.0022 7.59559 55.2062 7.39159C55.4222 7.18759 55.6862 7.08559 55.9982 7.08559C56.3102 7.08559 56.5682 7.18759 56.7722 7.39159C56.9762 7.59559 57.0782 7.85959 57.0782 8.18359C57.0782 8.49559 56.9762 8.75359 56.7722 8.95759C56.5682 9.16159 56.3102 9.26359 55.9982 9.26359ZM62.7503 19.4336C62.2463 19.4336 61.8563 19.2956 61.5803 19.0196C61.3163 18.7436 61.1843 18.3656 61.1843 17.8856V11.8736H58.5383V10.6316H61.1843V7.49959H62.6063V10.6316H64.9103V11.8736H62.6063V17.6696C62.6063 18.0296 62.7803 18.2096 63.1283 18.2096H65.0903V19.4336H62.7503ZM68.5463 19.4336C68.0423 19.4336 67.6523 19.2956 67.3763 19.0196C67.1003 18.7436 66.9623 18.3656 66.9623 17.8856V11.8736H64.9103V10.6316H66.9623V7.49959H68.3843V10.6316H71.2823V11.8736H68.3843V17.6696C68.3843 18.0296 68.5643 18.2096 68.9243 18.2096H70.8863V19.4336H68.5463ZM73.4104 19.4336V6.83359H74.8324V12.0356H75.0844C75.2044 11.7716 75.3844 11.5256 75.6244 11.2976C75.8764 11.0576 76.1944 10.8596 76.5784 10.7036C76.9744 10.5476 77.4724 10.4696 78.0724 10.4696C78.7324 10.4696 79.3204 10.6136 79.8364 10.9016C80.3644 11.1776 80.7844 11.5856 81.0964 12.1256C81.4084 12.6536 81.5644 13.3136 81.5644 14.1056V19.4336H80.1424V14.2136C80.1424 13.3376 79.9204 12.7016 79.4764 12.3056C79.0444 11.9096 78.4564 11.7116 77.7124 11.7116C76.8604 11.7116 76.1644 11.9876 75.6244 12.5396C75.0964 13.0916 74.8324 13.9136 74.8324 15.0056V19.4336H73.4104ZM84.2695 19.4336V10.6316H85.6915V19.4336H84.2695ZM84.9895 9.26359C84.6775 9.26359 84.4135 9.16159 84.1975 8.95759C83.9935 8.75359 83.8915 8.49559 83.8915 8.18359C83.8915 7.85959 83.9935 7.59559 84.1975 7.39159C84.4135 7.18759 84.6775 7.08559 84.9895 7.08559C85.3015 7.08559 85.5595 7.18759 85.7635 7.39159C85.9675 7.59559 86.0695 7.85959 86.0695 8.18359C86.0695 8.49559 85.9675 8.75359 85.7635 8.95759C85.5595 9.16159 85.3015 9.26359 84.9895 9.26359ZM92.0476 19.6856C90.9556 19.6856 90.0316 19.4336 89.2756 18.9296C88.5316 18.4256 88.0816 17.6276 87.9256 16.5356L89.2756 16.2296C89.3716 16.8056 89.5516 17.2616 89.8156 17.5976C90.0796 17.9216 90.4036 18.1556 90.7876 18.2996C91.1836 18.4316 91.6036 18.4976 92.0476 18.4976C92.7076 18.4976 93.2296 18.3656 93.6136 18.1016C93.9976 17.8376 94.1896 17.4836 94.1896 17.0396C94.1896 16.5836 94.0036 16.2656 93.6316 16.0856C93.2716 15.8936 92.7736 15.7376 92.1376 15.6176L91.3996 15.4916C90.8356 15.3956 90.3196 15.2456 89.8516 15.0416C89.3836 14.8376 89.0116 14.5616 88.7356 14.2136C88.4596 13.8656 88.3216 13.4276 88.3216 12.8996C88.3216 12.1076 88.6276 11.4896 89.2396 11.0456C89.8516 10.6016 90.6616 10.3796 91.6696 10.3796C92.6656 10.3796 93.4696 10.6076 94.0816 11.0636C94.7056 11.5076 95.1076 12.1376 95.2876 12.9536L93.9556 13.2956C93.8476 12.6596 93.5896 12.2156 93.1816 11.9636C92.7736 11.6996 92.2696 11.5676 91.6696 11.5676C91.0696 11.5676 90.5956 11.6816 90.2476 11.9096C89.8996 12.1256 89.7256 12.4496 89.7256 12.8816C89.7256 13.3016 89.8876 13.6136 90.2116 13.8176C90.5476 14.0096 90.9916 14.1536 91.5436 14.2496L92.2816 14.3756C92.9056 14.4836 93.4636 14.6336 93.9556 14.8256C94.4596 15.0056 94.8556 15.2696 95.1436 15.6176C95.4436 15.9656 95.5936 16.4216 95.5936 16.9856C95.5936 17.8496 95.2696 18.5156 94.6216 18.9836C93.9856 19.4516 93.1276 19.6856 92.0476 19.6856Z" fill="white"/>
</svg>
