<svg width="40" height="40" viewBox="0 0 40 40" fill="none" xmlns="http://www.w3.org/2000/svg">
<rect width="40" height="40" fill="#0E0E0E"/>
<path d="M13.3867 7.06641H27.4181V9.2909H21.6002V27.0298H19.2046V9.2909H13.3867V7.06641Z" fill="#33F066"/>
<path d="M24.7312 18.3301C24.7312 17.6836 24.5981 17.1132 24.3319 16.6189C24.0848 16.1246 23.7425 15.7158 23.3052 15.3926C22.8679 15.0694 22.3641 14.8222 21.7937 14.6511C21.2233 14.48 20.6244 14.3944 19.997 14.3944C19.4456 14.3944 18.9228 14.4705 18.4285 14.6226C17.9341 14.7557 17.4873 14.9553 17.0881 15.2215C16.7078 15.4877 16.4036 15.8204 16.1754 16.2196C15.9473 16.5999 15.8332 17.0467 15.8332 17.56V17.7312C15.8332 18.2825 15.9473 18.7578 16.1754 19.1571C16.4036 19.5374 16.7363 19.8701 17.1736 20.1553C17.6299 20.4215 18.1908 20.6496 18.8562 20.8397C19.5217 21.0109 20.3012 21.163 21.1948 21.2961C23.2862 21.6193 24.8263 22.2372 25.8149 23.1498C26.8036 24.0434 27.2979 25.2507 27.2979 26.7717V27.114C27.2979 27.9695 27.1458 28.7586 26.8416 29.4811C26.5564 30.1845 26.1191 30.7929 25.5297 31.3063C24.9593 31.8196 24.2464 32.2189 23.3908 32.5041C22.5352 32.7893 21.5466 32.9319 20.4248 32.9319C19.1509 32.9319 18.0197 32.7513 17.031 32.39C16.0614 32.0098 15.2438 31.4964 14.5784 30.85C13.9319 30.1845 13.4376 29.4145 13.0954 28.5399C12.7531 27.6463 12.582 26.6767 12.582 25.631V24.7754H14.9776V25.4599C14.9776 27.209 15.453 28.5209 16.4036 29.3955C17.3733 30.2701 18.7137 30.7074 20.4248 30.7074C21.9078 30.7074 23.02 30.3842 23.7615 29.7377C24.5221 29.0723 24.9023 28.1977 24.9023 27.114V26.9428C24.9023 25.8971 24.5125 25.0986 23.733 24.5472C22.9725 23.9959 21.7272 23.5966 19.997 23.3494C18.9893 23.2163 18.0767 23.0167 17.2592 22.7505C16.4606 22.4653 15.7762 22.1041 15.2058 21.6668C14.6354 21.2105 14.1981 20.6686 13.8939 20.0412C13.5897 19.4138 13.4376 18.6723 13.4376 17.8167V17.4745C13.4376 16.695 13.5992 15.982 13.9224 15.3355C14.2456 14.6891 14.6924 14.1282 15.2628 13.6529C15.8522 13.1776 16.5462 12.8164 17.3447 12.5692C18.1623 12.303 19.0559 12.1699 20.0255 12.1699C21.1473 12.1699 22.1455 12.3315 23.02 12.6547C23.9136 12.978 24.6646 13.4153 25.2731 13.9666C25.8815 14.499 26.3378 15.1359 26.642 15.8774C26.9652 16.5999 27.1268 17.3604 27.1268 18.1589V19.3568H24.7312V18.3301Z" fill="white"/>
<path d="M13.3867 7.06641H27.4181V9.2909H21.6002V16.4614H19.2046V9.2909H13.3867V7.06641Z" fill="#33F066"/>
</svg>
